<svg xmlns="http://www.w3.org/2000/svg" width="960" height="600" viewBox="0 0 960 600">
  <defs>
    <linearGradient id="bg" x1="0" x2="1" y1="0" y2="1">
      <stop offset="0" stop-color="#fafaf9"/>
      <stop offset="0.58" stop-color="#e7e5e4"/>
      <stop offset="1" stop-color="#78716c"/>
    </linearGradient>
  </defs>
  <rect width="960" height="600" fill="#f5f5f4"/>
  <rect x="38" y="34" width="884" height="532" rx="34" fill="url(#bg)"/>
  <rect x="86" y="78" width="788" height="40" rx="20" fill="#fff" opacity=".82"/>
  <rect x="122" y="91" width="126" height="14" rx="7" fill="#44403c"/>
  <rect x="620" y="91" width="62" height="14" rx="7" fill="#44403c" opacity=".2"/>
  <rect x="708" y="91" width="62" height="14" rx="7" fill="#44403c" opacity=".2"/>
  <rect x="102" y="154" width="334" height="296" rx="30" fill="#fff" opacity=".78"/>
  <rect x="136" y="196" width="218" height="22" rx="11" fill="#44403c"/>
  <rect x="136" y="238" width="246" height="50" rx="14" fill="#44403c" opacity=".15"/>
  <rect x="136" y="334" width="132" height="38" rx="19" fill="#44403c"/>
  <rect x="482" y="154" width="152" height="296" rx="28" fill="#fff" opacity=".74"/>
  <rect x="658" y="154" width="166" height="140" rx="28" fill="#fff" opacity=".74"/>
  <rect x="658" y="318" width="166" height="132" rx="28" fill="#fff" opacity=".74"/>
  <rect x="110" y="486" width="720" height="28" rx="14" fill="#fff" opacity=".66"/>
</svg>
